<svg width="80" height="27" viewBox="0 0 80 27" fill="none" xmlns="http://www.w3.org/2000/svg">
<path d="M25.332 10.082V20H23.28V18.83C22.956 19.238 22.53 19.562 22.002 19.802C21.486 20.03 20.934 20.144 20.346 20.144C19.566 20.144 18.864 19.982 18.24 19.658C17.628 19.334 17.142 18.854 16.782 18.218C16.434 17.582 16.26 16.814 16.26 15.914V10.082H18.294V15.608C18.294 16.496 18.516 17.18 18.96 17.66C19.404 18.128 20.01 18.362 20.778 18.362C21.546 18.362 22.152 18.128 22.596 17.66C23.052 17.18 23.28 16.496 23.28 15.608V10.082H25.332ZM29.0835 8.768C28.7115 8.768 28.3995 8.642 28.1475 8.39C27.8955 8.138 27.7695 7.826 27.7695 7.454C27.7695 7.082 27.8955 6.77 28.1475 6.518C28.3995 6.266 28.7115 6.14 29.0835 6.14C29.4435 6.14 29.7495 6.266 30.0015 6.518C30.2535 6.77 30.3795 7.082 30.3795 7.454C30.3795 7.826 30.2535 8.138 30.0015 8.39C29.7495 8.642 29.4435 8.768 29.0835 8.768ZM30.0915 10.082V20H28.0395V10.082H30.0915ZM34.6035 18.326H39.1035V20H32.2275V18.326L36.7455 11.756H32.2275V10.082H39.1035V11.756L34.6035 18.326Z" fill="#535050"/>
<path d="M10.602 22.214L8.694 19.928C8.166 20.06 7.626 20.126 7.074 20.126C5.898 20.126 4.818 19.85 3.834 19.298C2.85 18.746 2.07 17.984 1.494 17.012C0.918 16.028 0.63 14.918 0.63 13.682C0.63 12.458 0.918 11.36 1.494 10.388C2.07 9.404 2.85 8.636 3.834 8.084C4.818 7.532 5.898 7.256 7.074 7.256C8.262 7.256 9.342 7.532 10.314 8.084C11.298 8.636 12.072 9.404 12.636 10.388C13.212 11.36 13.5 12.458 13.5 13.682C13.5 14.798 13.26 15.818 12.78 16.742C12.312 17.654 11.67 18.398 10.854 18.974L13.734 22.214H10.602ZM3.222 13.682C3.222 14.522 3.384 15.26 3.708 15.896C4.032 16.532 4.482 17.024 5.058 17.372C5.646 17.708 6.318 17.876 7.074 17.876C7.83 17.876 8.496 17.708 9.072 17.372C9.648 17.024 10.098 16.532 10.422 15.896C10.746 15.26 10.908 14.522 10.908 13.682C10.908 12.842 10.746 12.11 10.422 11.486C10.098 10.85 9.648 10.364 9.072 10.028C8.496 9.692 7.83 9.524 7.074 9.524C6.318 9.524 5.646 9.692 5.058 10.028C4.482 10.364 4.032 10.85 3.708 11.486C3.384 12.11 3.222 12.842 3.222 13.682Z" fill="#6066D0"/>
<path d="M50.946 17.606H45.942L45.114 20H42.468L46.986 7.418H49.92L54.438 20H51.774L50.946 17.606ZM50.262 15.59L48.444 10.334L46.626 15.59H50.262ZM58.6468 11.468C58.9708 11.012 59.4148 10.634 59.9788 10.334C60.5548 10.022 61.2088 9.866 61.9408 9.866C62.7928 9.866 63.5608 10.076 64.2448 10.496C64.9408 10.916 65.4868 11.516 65.8828 12.296C66.2908 13.064 66.4948 13.958 66.4948 14.978C66.4948 15.998 66.2908 16.904 65.8828 17.696C65.4868 18.476 64.9408 19.082 64.2448 19.514C63.5608 19.946 62.7928 20.162 61.9408 20.162C61.2088 20.162 60.5608 20.012 59.9968 19.712C59.4448 19.412 58.9948 19.034 58.6468 18.578V24.752H56.1268V10.028H58.6468V11.468ZM63.9208 14.978C63.9208 14.378 63.7948 13.862 63.5428 13.43C63.3028 12.986 62.9788 12.65 62.5708 12.422C62.1748 12.194 61.7428 12.08 61.2748 12.08C60.8188 12.08 60.3868 12.2 59.9788 12.44C59.5828 12.668 59.2588 13.004 59.0068 13.448C58.7668 13.892 58.6468 14.414 58.6468 15.014C58.6468 15.614 58.7668 16.136 59.0068 16.58C59.2588 17.024 59.5828 17.366 59.9788 17.606C60.3868 17.834 60.8188 17.948 61.2748 17.948C61.7428 17.948 62.1748 17.828 62.5708 17.588C62.9788 17.348 63.3028 17.006 63.5428 16.562C63.7948 16.118 63.9208 15.59 63.9208 14.978ZM70.846 11.468C71.17 11.012 71.614 10.634 72.178 10.334C72.754 10.022 73.408 9.866 74.14 9.866C74.992 9.866 75.76 10.076 76.444 10.496C77.14 10.916 77.686 11.516 78.082 12.296C78.49 13.064 78.694 13.958 78.694 14.978C78.694 15.998 78.49 16.904 78.082 17.696C77.686 18.476 77.14 19.082 76.444 19.514C75.76 19.946 74.992 20.162 74.14 20.162C73.408 20.162 72.76 20.012 72.196 19.712C71.644 19.412 71.194 19.034 70.846 18.578V24.752H68.326V10.028H70.846V11.468ZM76.12 14.978C76.12 14.378 75.994 13.862 75.742 13.43C75.502 12.986 75.178 12.65 74.77 12.422C74.374 12.194 73.942 12.08 73.474 12.08C73.018 12.08 72.586 12.2 72.178 12.44C71.782 12.668 71.458 13.004 71.206 13.448C70.966 13.892 70.846 14.414 70.846 15.014C70.846 15.614 70.966 16.136 71.206 16.58C71.458 17.024 71.782 17.366 72.178 17.606C72.586 17.834 73.018 17.948 73.474 17.948C73.942 17.948 74.374 17.828 74.77 17.588C75.178 17.348 75.502 17.006 75.742 16.562C75.994 16.118 76.12 15.59 76.12 14.978Z" fill="#FCA82F"/>
</svg>
