<svg width="173" height="23" viewBox="0 0 173 23" fill="none" xmlns="http://www.w3.org/2000/svg">
<rect x="0.5" y="0.5" width="172" height="22" rx="11" stroke="#9A9999" stroke-opacity="0.17"/>
<g filter="url(#filter0_d_104_15)">
<rect x="8" y="6" width="134" height="10" rx="5" fill="white"/>
</g>
<rect x="8" y="6" width="26" height="10" rx="5" fill="#FCA82F"/>
<path d="M148.304 8.88V8.216H149.808V14H149.072V8.88H148.304ZM153.899 6.464L151.707 15.36H150.987L153.171 6.464H153.899ZM154.671 8.88V8.216H156.175V14H155.439V8.88H154.671ZM157.426 11.048C157.426 10.1307 157.575 9.416 157.874 8.904C158.172 8.38667 158.695 8.128 159.442 8.128C160.183 8.128 160.703 8.38667 161.002 8.904C161.3 9.416 161.45 10.1307 161.45 11.048C161.45 11.9813 161.3 12.7067 161.002 13.224C160.703 13.7413 160.183 14 159.442 14C158.695 14 158.172 13.7413 157.874 13.224C157.575 12.7067 157.426 11.9813 157.426 11.048ZM160.73 11.048C160.73 10.584 160.698 10.192 160.634 9.872C160.575 9.54667 160.45 9.28533 160.258 9.088C160.071 8.89067 159.799 8.792 159.442 8.792C159.079 8.792 158.802 8.89067 158.61 9.088C158.423 9.28533 158.298 9.54667 158.234 9.872C158.175 10.192 158.146 10.584 158.146 11.048C158.146 11.528 158.175 11.9307 158.234 12.256C158.298 12.5813 158.423 12.8427 158.61 13.04C158.802 13.2373 159.079 13.336 159.442 13.336C159.799 13.336 160.071 13.2373 160.258 13.04C160.45 12.8427 160.575 12.5813 160.634 12.256C160.698 11.9307 160.73 11.528 160.73 11.048Z" fill="black"/>
<defs>
<filter id="filter0_d_104_15" x="5" y="6" width="140" height="16" filterUnits="userSpaceOnUse" color-interpolation-filters="sRGB">
<feFlood flood-opacity="0" result="BackgroundImageFix"/>
<feColorMatrix in="SourceAlpha" type="matrix" values="0 0 0 0 0 0 0 0 0 0 0 0 0 0 0 0 0 0 127 0" result="hardAlpha"/>
<feOffset dy="3"/>
<feGaussianBlur stdDeviation="1.5"/>
<feComposite in2="hardAlpha" operator="out"/>
<feColorMatrix type="matrix" values="0 0 0 0 0 0 0 0 0 0 0 0 0 0 0 0 0 0 0.08 0"/>
<feBlend mode="normal" in2="BackgroundImageFix" result="effect1_dropShadow_104_15"/>
<feBlend mode="normal" in="SourceGraphic" in2="effect1_dropShadow_104_15" result="shape"/>
</filter>
</defs>
</svg>
